<svg id="Layer_1" data-name="Layer 1" xmlns="http://www.w3.org/2000/svg" xmlns:xlink="http://www.w3.org/1999/xlink" viewBox="0 0 1920 309.01"><defs><style>.cls-1{fill:#fff;}.cls-2{fill:url(#radial-gradient);}.cls-3{fill:url(#radial-gradient-2);}</style><radialGradient id="radial-gradient" cx="1461.38" cy="5796.12" r="849.33" gradientTransform="matrix(-1, 0, 0, 0.63, 1818.13, -3220.33)" gradientUnits="userSpaceOnUse"><stop offset="0.01" stop-color="#a5ccec"/><stop offset="0.29" stop-color="#bfddf3"/><stop offset="0.75" stop-color="#e2f6fc"/><stop offset="1" stop-color="azure"/></radialGradient><radialGradient id="radial-gradient-2" cx="1484.06" cy="9854.23" r="1204.28" gradientTransform="translate(0.03 -4357.93) scale(1 0.5)" xlink:href="#radial-gradient"/></defs><title>Artboard 14</title><path class="cls-1" d="M0,0,5.89.17A53.48,53.48,0,0,1,49.72,27.56,32.61,32.61,0,0,1,94.9,51.65a52.43,52.43,0,0,1,6.85-.46A51.11,51.11,0,0,1,127,57.81a62.52,62.52,0,0,1,55-33,61.89,61.89,0,0,1,61.77,54.4A40.89,40.89,0,0,1,261.21,88a50.72,50.72,0,0,1,76.58-2.61,49.12,49.12,0,0,1,74.72,41.92c0,1.37-.05,2.74-.16,4.11a36.23,36.23,0,0,1,8.36,1.66A35.54,35.54,0,0,1,486.35,152a35.86,35.86,0,0,1-.42,5.49,46.28,46.28,0,0,1,59.68,28.71,47.06,47.06,0,0,1,12.88,2,32.56,32.56,0,0,1,20.88-20.67,37.59,37.59,0,0,1,52.88-32.9A41.17,41.17,0,0,1,710,131.31a52.92,52.92,0,0,1,48.92,32.58,32.21,32.21,0,0,1,54.76,23,31.72,31.72,0,0,1-2.07,11.31,58.89,58.89,0,0,1,22.78,38.35,51.62,51.62,0,0,1,25.23-6.54c1.71,0,3.43.09,5.14.26a59.25,59.25,0,0,1,116.53,15.12c0,.33,0,.66,0,1a46.32,46.32,0,0,1,32.33-3.77,59.24,59.24,0,0,1,116.47-12.31,51.37,51.37,0,0,1,89,25.87c1-.07,2.07-.11,3.07-.11a47.88,47.88,0,0,1,21,4.83,51.4,51.4,0,0,1,67.53-45.12,62.25,62.25,0,0,1,60.21-45.39,63,63,0,0,1,56.89,36.46,35.05,35.05,0,0,1,56.35,27.85c0,1.09-.05,2.19-.16,3.29a38.78,38.78,0,0,1,11.71,2.71,28.9,28.9,0,0,1,39.5,16,41.14,41.14,0,0,1,14.46-4.88,44.08,44.08,0,0,1-.64-7.53A44.62,44.62,0,0,1,1632.31,222a51.36,51.36,0,0,1,76.8,24.12,75,75,0,0,1,62.56-2.64,37.9,37.9,0,0,1,38.93-12.14,48,48,0,0,1,60.14-29.3c9.32-19.32,27.59-31.63,49.21-31.63V309H0Z"/><path class="cls-2" d="M43.91,31.56A29.61,29.61,0,0,1,87.83,55.12a48.24,48.24,0,0,1,35.85,7A59.26,59.26,0,0,1,236.43,81.74a38.13,38.13,0,0,1,20.68,10.71,47.71,47.71,0,0,1,75.64-3.13,46.12,46.12,0,0,1,72.27,38,46.4,46.4,0,0,1-.54,7l.54,0a33.22,33.22,0,0,1,12.52,2.45A32.54,32.54,0,0,1,477,162.68a43.3,43.3,0,0,1,61.87,26.54c.55,0,1.09,0,1.64,0A43.76,43.76,0,0,1,556,192a29.38,29.38,0,0,1,21.83-22.26c0-.28,0-.56,0-.84A34.59,34.59,0,0,1,629.75,139a38.17,38.17,0,0,1,73.68-4.6c.65,0,1.29-.05,1.94-.05a50.23,50.23,0,0,1,48,35.39,29.22,29.22,0,0,1,50.1,29.56,56.21,56.21,0,0,1,24,42.39,48.67,48.67,0,0,1,27.7-8.6,48.09,48.09,0,0,1,7.44.57A56.23,56.23,0,0,1,973.42,252a43.29,43.29,0,0,1,38.67-5.29c0-.41,0-.82,0-1.23A56.24,56.24,0,0,1,1124,237.3,48.37,48.37,0,0,1,1212,259.48a46,46,0,0,1,5.66-.37,44.74,44.74,0,0,1,23.89,6.87c0-.48,0-1,0-1.43a48.39,48.39,0,0,1,66.75-44.75,59.61,59.61,0,0,1,113.85-7.93,32,32,0,0,1,54.51,22.87,32.51,32.51,0,0,1-.61,6.2h.61a35.87,35.87,0,0,1,14.66,3.12,25.89,25.89,0,0,1,37.63,17.31,38.06,38.06,0,0,1,19.84-6.87,41.63,41.63,0,0,1,78-28,48.36,48.36,0,0,1,76.15,24,72,72,0,0,1,65.18-3.31,34.88,34.88,0,0,1,39.93-12,45,45,0,0,1,59.79-29.29,53,53,0,0,1,48.86-32.42,28.11,28.11,0,0,1,3.32.12L1920,309H0V3.17C18.82,4.18,36.12,15.48,43.91,31.56Z"/><path class="cls-1" d="M1920,0l-5.89.17a53.48,53.48,0,0,0-43.83,27.39,32.61,32.61,0,0,0-45.18,24.09,52.55,52.55,0,0,0-6.85-.46A51.11,51.11,0,0,0,1793,57.81a62.53,62.53,0,0,0-55-33,61.89,61.89,0,0,0-61.76,54.4A40.89,40.89,0,0,0,1658.79,88a50.72,50.72,0,0,0-76.58-2.61,49.12,49.12,0,0,0-74.72,41.92c0,1.37,0,2.74.16,4.11a36.23,36.23,0,0,0-8.36,1.66,35.54,35.54,0,0,0-65.64,18.9,35.86,35.86,0,0,0,.42,5.49,46.28,46.28,0,0,0-59.68,28.71,47.06,47.06,0,0,0-12.88,2,32.56,32.56,0,0,0-20.88-20.67,37.59,37.59,0,0,0-52.88-32.9,41.17,41.17,0,0,0-77.77-3.26,52.92,52.92,0,0,0-48.92,32.58,32.21,32.21,0,0,0-54.76,23,31.72,31.72,0,0,0,2.07,11.31,58.89,58.89,0,0,0-22.78,38.35,51.62,51.62,0,0,0-25.23-6.54c-1.71,0-3.43.09-5.14.26a59.25,59.25,0,0,0-116.53,15.12c0,.33,0,.66,0,1a46.32,46.32,0,0,0-32.33-3.77A59.24,59.24,0,0,0,789.9,230.35a51.37,51.37,0,0,0-89,25.87c-1-.07-2.07-.11-3.07-.11a47.88,47.88,0,0,0-21,4.83,51.4,51.4,0,0,0-67.53-45.12,62.25,62.25,0,0,0-60.21-45.39,63,63,0,0,0-56.89,36.46,35.05,35.05,0,0,0-56.35,27.85c0,1.09,0,2.19.16,3.29a38.78,38.78,0,0,0-11.71,2.71,28.9,28.9,0,0,0-39.5,16,41.14,41.14,0,0,0-14.46-4.88,44.08,44.08,0,0,0,.64-7.53A44.62,44.62,0,0,0,287.69,222a51.36,51.36,0,0,0-76.8,24.12,75,75,0,0,0-62.56-2.64,37.9,37.9,0,0,0-38.93-12.14,48,48,0,0,0-60.14-29.3C39.94,182.76,21.67,170.45.05,170.45V309H1920Z"/><path class="cls-3" d="M1876.08,31.56a29.6,29.6,0,0,0-43.91,23.56,48.24,48.24,0,0,0-35.85,7,59.26,59.26,0,0,0-112.75,19.67,38.13,38.13,0,0,0-20.68,10.71,47.71,47.71,0,0,0-75.64-3.13,46.12,46.12,0,0,0-72.27,38,47.73,47.73,0,0,0,.53,7l-.53,0a33.22,33.22,0,0,0-12.52,2.45,32.54,32.54,0,0,0-59.5,25.92,43.3,43.3,0,0,0-61.87,26.54c-.55,0-1.09,0-1.64,0A43.76,43.76,0,0,0,1364,192a29.38,29.38,0,0,0-21.83-22.26c0-.28,0-.56,0-.84a34.58,34.58,0,0,0-51.9-29.94,38.17,38.17,0,0,0-73.68-4.6c-.65,0-1.29-.05-1.94-.05a50.23,50.23,0,0,0-48,35.39,29.22,29.22,0,0,0-50.1,29.56,56.21,56.21,0,0,0-24,42.39,48.67,48.67,0,0,0-27.7-8.6,48.09,48.09,0,0,0-7.44.57A56.23,56.23,0,0,0,946.58,252a43.29,43.29,0,0,0-38.67-5.29c0-.41,0-.82,0-1.23A56.24,56.24,0,0,0,796,237.3,48.37,48.37,0,0,0,708,259.48a46,46,0,0,0-5.66-.37A44.74,44.74,0,0,0,678.42,266c0-.48,0-1,0-1.43a48.39,48.39,0,0,0-66.75-44.75,59.61,59.61,0,0,0-113.85-7.93,32,32,0,0,0-54.51,22.87,32.51,32.51,0,0,0,.61,6.2h-.61a35.87,35.87,0,0,0-14.66,3.12,25.89,25.89,0,0,0-37.63,17.31,38.06,38.06,0,0,0-19.84-6.87,41.63,41.63,0,0,0-78-28,48.36,48.36,0,0,0-76.15,24,72,72,0,0,0-65.18-3.31,34.88,34.88,0,0,0-39.93-12,45,45,0,0,0-59.79-29.29A53,53,0,0,0,3.32,173.43a28.11,28.11,0,0,0-3.32.12L.05,309H1920V3.17C1901.18,4.18,1883.88,15.48,1876.08,31.56Z"/></svg>