<svg id="Layer_1" data-name="Layer 1" xmlns="http://www.w3.org/2000/svg" viewBox="0 0 1920 1148.13"><defs><style>.cls-1{fill:#608ca4;}.cls-2{fill:#fff;}.cls-3{fill:#c9c9c9;}.cls-4{fill:#244e63;}</style></defs><title>Artboard 13</title><path class="cls-1" d="M1920,1143.11l-855.88,4.19c2.64-31.56,4.79-56.59,4.79-56.59l97.21-147.52,17.23-239.59,85.19-214.53V282.73L1306.44,163V4l1.88-4,140,273.86,47.53,92.94,23,55.64,19.52,84.74,51.44,41.41,8.53-47.23-21.45-42,1.47-40.12-2.87-27.75-2.07-24,12.6-29.75v-41.4l20.71-63.87.6-1,53.42,155.94Z"/><polygon class="cls-2" points="1660.58 387.38 1652.39 401.1 1629.97 374.56 1618.27 408.86 1592.91 375.87 1575.42 391.45 1573.35 367.44 1585.95 337.69 1585.95 296.3 1606.66 232.42 1607.26 231.44 1660.58 387.38"/><polygon class="cls-2" points="1448.49 273.86 1415.97 283.35 1406.71 333.81 1349.68 326.05 1285.71 384.27 1268.54 334.04 1268.54 282.73 1306.44 163.02 1306.44 4.04 1308.32 0 1448.49 273.86"/><polygon class="cls-3" points="1306.44 4.04 1306.44 163.02 1268.54 282.73 1268.54 334.04 1267.18 331.23 1205.58 434.73 1197.69 375.21 1165.76 394.23 1306.44 4.04"/><path class="cls-4" d="M1268.54,334v155L1183.35,703.6l-17,239.59L1069,1090.71s-2.2,25-4.83,56.59l-170.73.83,272.69-753.9,31.47-19,7.79,59.52,61.8-103.5Z"/><polygon class="cls-3" points="1606.66 232.13 1585.95 296.3 1585.95 337.69 1573.35 367.44 1575.63 391.45 1555.97 408.86 1562.75 355.8 1529.82 364.57 1545.63 317.69 1535.75 317.69 1606.66 232.13"/><polygon class="cls-4" points="1598.28 501.36 1589.76 548.59 1538.32 507.18 1518.83 422.44 1495.91 366.51 1535.75 317.69 1545.63 317.69 1529.8 364.57 1562.7 355.65 1555.87 408.79 1575.42 391.41 1578.29 419.19 1576.83 459.31 1598.28 501.36"/><polygon class="cls-1" points="334.08 1148.13 334.08 1077.88 299.32 972.4 334.08 852.34 261.67 800.53 274.22 703.98 269.97 680.75 249.12 566.87 249.12 391.13 248.77 391.23 249.12 390.17 293.53 484.31 355.32 570.73 378.5 721.36 409.4 837.92 430.64 794.74 430.64 624.8 451.88 524.38 451.88 427.83 492.09 346.24 492.44 345.99 655.46 728.58 834.24 1148.13 334.08 1148.13"/><polygon class="cls-2" points="355.32 570.73 378.5 721.36 334.08 688.53 318.63 702.04 293.53 655.7 269.97 680.75 249.12 566.87 249.12 391.13 248.77 391.23 249.12 390.17 293.53 484.31 355.32 570.73"/><polygon class="cls-2" points="655.46 728.58 641.13 747.06 569.68 636.39 569.68 702.04 519.47 703.98 496.3 747.06 430.64 624.8 451.88 524.38 451.88 427.83 492.09 346.24 492.44 345.99 655.46 728.58"/><polygon class="cls-3" points="269.97 680.75 231.73 721.36 198.91 655.7 142.82 713.57 248.77 391.23 249.12 391.13 249.12 566.87 269.97 680.75"/><polygon class="cls-4" points="299.32 972.4 334.08 1077.88 334.08 1148.13 0 1148.13 142.81 713.59 142.82 713.57 198.91 655.7 231.73 721.36 269.97 680.75 274.22 703.98 261.67 800.53 334.08 852.34 299.32 972.4"/><polygon class="cls-3" points="492.09 346.24 451.88 427.83 451.88 524.38 430.64 624.8 378.5 721.36 355.32 570.73 325.51 529.04 492.09 346.24"/><polygon class="cls-4" points="430.64 624.8 430.64 794.74 409.4 837.92 378.5 721.36 430.64 624.8"/></svg>