<svg id="Layer_1" data-name="Layer 1" xmlns="http://www.w3.org/2000/svg" xmlns:xlink="http://www.w3.org/1999/xlink" viewBox="0 0 1920 311.28"><defs><style>.cls-1{fill:url(#radial-gradient);}.cls-2{fill:url(#radial-gradient-2);}.cls-3{fill:url(#radial-gradient-3);}.cls-4{fill:url(#radial-gradient-4);}.cls-5{fill:url(#radial-gradient-5);}</style><radialGradient id="radial-gradient" cx="560.91" cy="4848.84" r="244.55" gradientTransform="translate(1844.33 3782.71) rotate(180) scale(1 0.76)" gradientUnits="userSpaceOnUse"><stop offset="0.01" stop-color="#adb3cf"/><stop offset="0.63" stop-color="#c5d8f0"/><stop offset="1" stop-color="#cfe8ff"/></radialGradient><radialGradient id="radial-gradient-2" cx="559.25" cy="4802.31" r="244.55" gradientTransform="matrix(1, 0, 0, -0.76, -1.17, 3782.71)" xlink:href="#radial-gradient"/><radialGradient id="radial-gradient-3" cx="318.91" cy="3698.31" r="289.71" gradientTransform="matrix(1, 0, 0, -0.84, -1.17, 3137.7)" xlink:href="#radial-gradient"/><radialGradient id="radial-gradient-4" cx="1615.45" cy="4907.56" r="205.92" gradientTransform="matrix(1, 0, 0, -0.76, -1.17, 3782.71)" xlink:href="#radial-gradient"/><radialGradient id="radial-gradient-5" cx="967.15" cy="13543.26" r="1416.77" gradientTransform="translate(0 -5013.92) scale(1 0.35)" gradientUnits="userSpaceOnUse"><stop offset="0.01" stop-color="#a5ccec"/><stop offset="0.02" stop-color="#a6cdec"/><stop offset="0.68" stop-color="#dbf1fa"/><stop offset="1" stop-color="azure"/></radialGradient></defs><title>Artboard 13</title><path class="cls-1" d="M1266.09,123.74c-.53,1.13-1,2.28-1.5,3.45-.34-1.17-.73-2.32-1.16-3.45H1009.24A51.49,51.49,0,0,0,1047,188.27a36.09,36.09,0,1,0,68.17,22.62,73.28,73.28,0,0,0,19.64,3.49A54.73,54.73,0,0,0,1165,245.85a38.82,38.82,0,0,0,73.68,22.39,30.21,30.21,0,0,0,3.32.19A29.43,29.43,0,0,0,1271.4,239c0-.37,0-.74,0-1.11a48.15,48.15,0,0,0,10.77-2.42,40.3,40.3,0,0,0,79.51-13.13,33,33,0,0,0,26.17-32.25c0-.47,0-.93,0-1.39a66.69,66.69,0,0,0,10.83.89,66,66,0,0,0,40.57-13.87,37.27,37.27,0,0,0,51.54-52Z"/><path class="cls-2" d="M540,123.74c.53,1.13,1,2.28,1.5,3.45q.51-1.75,1.17-3.45H796.85a51.45,51.45,0,0,1-37.74,64.53,36.09,36.09,0,1,1-68.17,22.62,73.21,73.21,0,0,1-19.64,3.49,54.7,54.7,0,0,1-30.16,31.47,38.82,38.82,0,0,1-73.67,22.39,30.36,30.36,0,0,1-3.32.19A29.42,29.42,0,0,1,534.7,239c0-.37,0-.74,0-1.11A48.06,48.06,0,0,1,524,235.49a40.31,40.31,0,0,1-79.52-13.13,33,33,0,0,1-26.16-32.25c0-.47,0-.93,0-1.39a66.26,66.26,0,0,1-51.39-13,37.27,37.27,0,0,1-51.54-52Z"/><path class="cls-3" d="M320.9,46.05c-.46,1-.9,2-1.3,3-.29-1-.64-2-1-3h-221a44.79,44.79,0,0,0,32.82,56.12,31.38,31.38,0,1,0,59.29,19.67,63.8,63.8,0,0,0,17.08,3,47.57,47.57,0,0,0,26.22,27.37A33.76,33.76,0,0,0,297,171.72a25,25,0,0,0,2.88.17,25.6,25.6,0,0,0,25.62-25.58c0-.32,0-.64,0-1a42.12,42.12,0,0,0,9.37-2.11A35,35,0,0,0,404,131.82a28.68,28.68,0,0,0,22.75-28q0-.6,0-1.2a58.51,58.51,0,0,0,9.42.77,57.44,57.44,0,0,0,35.28-12.06,32.41,32.41,0,0,0,44.82-45.23Z"/><path class="cls-4" d="M1573.25,66.49c.45,1,.88,1.93,1.27,2.91.28-1,.61-2,1-2.91h214a43.35,43.35,0,0,1-31.78,54.34,30.38,30.38,0,1,1-57.4,19,61.12,61.12,0,0,1-16.54,2.94,46.1,46.1,0,0,1-25.39,26.51,32.69,32.69,0,0,1-62,18.85,25.8,25.8,0,0,1-2.79.16,24.78,24.78,0,0,1-24.8-24.76c0-.32,0-.63,0-.94a41.34,41.34,0,0,1-9.07-2,33.94,33.94,0,0,1-67.31-6.16,34.46,34.46,0,0,1,.36-4.9,27.79,27.79,0,0,1-22-27.16q0-.59,0-1.17a55.8,55.8,0,0,1-43.28-10.93,31.38,31.38,0,0,1-43.39-43.79Z"/><path class="cls-5" d="M1395.68,0H0V45.49c0,11.29,15.19,21,28,21A27.75,27.75,0,0,0,44.32,61a25.8,25.8,0,0,0,20,9.44c.78,0,1.66,0,2.42-.11A32.11,32.11,0,1,0,128.6,84.52a24.32,24.32,0,0,0,6.7,1,24,24,0,0,0,7.8-1.3c-.09.94-.14,1.88-.14,2.84a27.37,27.37,0,1,0,52.38-11.08,22.53,22.53,0,0,0,3.7.3,23.06,23.06,0,0,0,16.26-6.68A24.14,24.14,0,0,0,238,85.47c.5,0,1,0,1.47,0a33.94,33.94,0,1,0,66.37,9.94v0l.74,0a18,18,0,0,0,18-17.84A17.74,17.74,0,0,0,322.42,69a20.24,20.24,0,0,0,17.93-1.48,46.46,46.46,0,0,0,55.35,37.71,51,51,0,0,0,23,12.23A35.83,35.83,0,1,0,486.38,140a72.25,72.25,0,0,0,19.5,3.47,54.35,54.35,0,0,0,30,31.25,38.11,38.11,0,0,0-.55,6.45A38.55,38.55,0,0,0,609,196.9a29.85,29.85,0,0,0,3.3.19,29.12,29.12,0,0,0,29-26.42,86.89,86.89,0,0,0,8.73.49c1.37,0,2.71-.07,4.06-.11a40,40,0,0,0,14,18.22,44.21,44.21,0,0,0,31.43,26.16,54.67,54.67,0,0,0-.57,7.83,53.82,53.82,0,0,0,105.36,15.62,49.41,49.41,0,0,0,14-2.9c.68.1,1.34.26,2,.34,0,.49,0,1,0,1.49a39.41,39.41,0,0,0,39.4,39.41A40.42,40.42,0,0,0,864,277a51.61,51.61,0,0,0,74.31,22.92A53.29,53.29,0,0,0,1020,279.63a40.61,40.61,0,0,0,45.29-40.43c0-.52,0-1,0-1.54,1.1-.12,2.16-.37,3.25-.54a48.81,48.81,0,0,0,7.88.69c1.58,0,3.06-.32,4.59-.46a55.59,55.59,0,0,0,109.63-13.15,54.91,54.91,0,0,0-.59-8.06,45.65,45.65,0,0,0,36.16-44.64c0-.65,0-1.29-.05-1.92a92.29,92.29,0,0,0,15,1.23c1.7,0,3.38-.13,5.06-.22a53.86,53.86,0,0,0,7.74,4.08,38.11,38.11,0,0,0-.55,6.45A38.55,38.55,0,0,0,1327,196.9a29.85,29.85,0,0,0,3.3.19,29.22,29.22,0,0,0,29.24-29.2c0-.37,0-.73,0-1.1a48.63,48.63,0,0,0,10.7-2.4,40,40,0,0,0,79.37-7.26,40.85,40.85,0,0,0-.42-5.78,32.76,32.76,0,0,0,26-32c0-.46,0-.92,0-1.37a66.83,66.83,0,0,0,10.75.87,65.15,65.15,0,0,0,10.33-.87,33.3,33.3,0,0,0,54.88-7.06,36.89,36.89,0,0,0,32.74-36.56,37.48,37.48,0,0,0-.34-4.4,20,20,0,0,0,6.6-2.38,46.84,46.84,0,0,0,91.71,2.64,29.47,29.47,0,0,0,3.9.27,28.79,28.79,0,0,0,18.52-6.71,31.19,31.19,0,0,0,40.12,21.63,39.31,39.31,0,0,0,78.36-4.53c0-.17,0-.34,0-.51a28.15,28.15,0,0,0,17.8-2.4,29.08,29.08,0,0,0,53.76-22.15c.37,0,.73-1.23,1.1-1.23,8.68,0,16.36-3.59,21.07-12.08H1920V0Z"/></svg>