<svg id="Layer_1" data-name="Layer 1" xmlns="http://www.w3.org/2000/svg" xmlns:xlink="http://www.w3.org/1999/xlink" viewBox="0 0 1920 230"><defs><style>.cls-1{fill:url(#radial-gradient);}.cls-2{fill:url(#radial-gradient-2);}.cls-3{fill:url(#radial-gradient-3);}.cls-4{fill:url(#radial-gradient-4);}.cls-5{fill:url(#radial-gradient-5);}</style><radialGradient id="radial-gradient" cx="1362.02" cy="3041.36" r="244.55" gradientTransform="translate(2646.63 1576.89) rotate(180) scale(1 0.49)" gradientUnits="userSpaceOnUse"><stop offset="0.01" stop-color="#adb3cf"/><stop offset="0.63" stop-color="#c5d8f0"/><stop offset="1" stop-color="#cfe8ff"/></radialGradient><radialGradient id="radial-gradient-2" cx="559.85" cy="2994.83" r="244.55" gradientTransform="matrix(1, 0, 0, -0.49, -1.77, 1576.89)" xlink:href="#radial-gradient"/><radialGradient id="radial-gradient-3" cx="319.51" cy="1996.75" r="289.71" gradientTransform="matrix(1, 0, 0, -0.54, -1.77, 1123.5)" xlink:href="#radial-gradient"/><radialGradient id="radial-gradient-4" cx="1616.05" cy="3100.08" r="205.92" gradientTransform="matrix(1, 0, 0, -0.49, -1.77, 1576.89)" xlink:href="#radial-gradient"/><radialGradient id="radial-gradient-5" cx="967.15" cy="14901.88" r="1569.17" gradientTransform="translate(0 -3551.32) scale(1 0.23)" gradientUnits="userSpaceOnUse"><stop offset="0.01" stop-color="#a5ccec"/><stop offset="0.02" stop-color="#a6cdec"/><stop offset="0.68" stop-color="#dbf1fa"/><stop offset="1" stop-color="azure"/></radialGradient></defs><title>Artboard 14</title><path class="cls-1" d="M1266.09,109.5c-.53.73-1,1.47-1.5,2.22a23.51,23.51,0,0,0-1.16-2.22H1009.24a22.36,22.36,0,0,0-2,9.27c0,15.67,17,28.79,39.79,32.19a16.46,16.46,0,0,0-3.14,9.45c0,12.8,16.16,23.16,36.1,23.16,17.21,0,31.6-7.73,35.21-18.07a110.49,110.49,0,0,0,19.64,2.24C1140,176.87,1151,184.21,1165,188a16.24,16.24,0,0,0-.55,4.17c0,13.76,17.38,24.91,38.82,24.91,15.77,0,29.33-6,35.41-14.69,1.09.08,2.19.12,3.32.12,16.26,0,29.45-8.46,29.45-18.9,0-.23,0-.47,0-.71a72.16,72.16,0,0,0,10.77-1.55c3.44,12,19.87,21.16,39.63,21.16,22.26,0,40.31-11.58,40.31-25.86a16.69,16.69,0,0,0-.43-3.74c14.95-2,26.17-10.53,26.17-20.72,0-.3,0-.6,0-.89a103.83,103.83,0,0,0,10.83.56c15.29,0,29.36-3.32,40.57-8.9A53,53,0,0,0,1460,147c20.6,0,37.3-10.72,37.3-23.94,0-5-2.41-9.68-6.53-13.53Z"/><path class="cls-2" d="M540,109.5c.53.73,1,1.47,1.5,2.22a21.48,21.48,0,0,1,1.17-2.22H796.85a22.22,22.22,0,0,1,2.06,9.27c0,15.67-17,28.79-39.8,32.19a16.4,16.4,0,0,1,3.15,9.45c0,12.8-16.16,23.16-36.1,23.16-17.22,0-31.61-7.73-35.22-18.07a110.39,110.39,0,0,1-19.64,2.24c-5.23,9.13-16.23,16.47-30.16,20.22a16.24,16.24,0,0,1,.56,4.17c0,13.76-17.38,24.91-38.83,24.91-15.76,0-29.32-6-35.4-14.69-1.09.08-2.2.12-3.32.12-16.27,0-29.45-8.46-29.45-18.9,0-.23,0-.47,0-.71A72,72,0,0,1,524,181.31c-3.45,12-19.88,21.16-39.64,21.16-22.26,0-40.3-11.58-40.3-25.86a16.69,16.69,0,0,1,.42-3.74c-14.94-2-26.16-10.53-26.16-20.72,0-.3,0-.6,0-.89a103.69,103.69,0,0,1-10.83.56c-15.28,0-29.36-3.32-40.56-8.9A53,53,0,0,1,346.15,147c-20.61,0-37.31-10.72-37.31-23.94,0-5,2.42-9.68,6.54-13.53Z"/><path class="cls-3" d="M320.9,59.59c-.46.63-.9,1.28-1.3,1.93a17,17,0,0,0-1-1.93h-221a19.4,19.4,0,0,0-1.78,8.06c0,13.62,14.77,25,34.6,28a14.27,14.27,0,0,0-2.73,8.21c0,11.13,14,20.15,31.39,20.15,15,0,27.49-6.73,30.63-15.73a96.36,96.36,0,0,0,17.08,2c4.55,7.94,14.11,14.32,26.22,17.58a14.24,14.24,0,0,0-.48,3.63c0,12,15.12,21.66,33.77,21.66,13.71,0,25.5-5.25,30.79-12.78,1,.07,1.91.11,2.88.11,14.15,0,25.62-7.36,25.62-16.43,0-.21,0-.42,0-.62a63.09,63.09,0,0,0,9.37-1.36c3,10.47,17.28,18.41,34.47,18.41,19.36,0,35.05-10.07,35.05-22.49a14.66,14.66,0,0,0-.37-3.25c13-1.77,22.75-9.16,22.75-18,0-.26,0-.51,0-.77a90.8,90.8,0,0,0,9.42.49c13.29,0,25.53-2.89,35.28-7.74a46,46,0,0,0,18.06,3.52c17.92,0,32.45-9.32,32.45-20.82,0-4.36-2.11-8.41-5.69-11.76Z"/><path class="cls-4" d="M1573.25,72.72c.45.62.88,1.24,1.27,1.87a16.71,16.71,0,0,1,1-1.87h214a18.87,18.87,0,0,1,1.73,7.81c0,13.19-14.31,24.24-33.51,27.1a13.81,13.81,0,0,1,2.65,8c0,10.77-13.61,19.5-30.4,19.5-14.49,0-26.61-6.51-29.65-15.22a93.3,93.3,0,0,1-16.54,1.89c-4.41,7.69-13.66,13.87-25.39,17a13.74,13.74,0,0,1,.46,3.51c0,11.58-14.63,21-32.69,21-13.27,0-24.69-5.08-29.81-12.37-.92.07-1.85.1-2.79.1-13.7,0-24.8-7.12-24.8-15.91,0-.2,0-.4,0-.6a59.48,59.48,0,0,1-9.07-1.31c-2.9,10.14-16.73,17.82-33.37,17.82-18.74,0-33.94-9.75-33.94-21.77a14.42,14.42,0,0,1,.36-3.15c-12.58-1.71-22-8.87-22-17.45q0-.37,0-.75a87.77,87.77,0,0,1-9.12.48c-12.87,0-24.72-2.8-34.16-7.5a44.54,44.54,0,0,1-17.48,3.41c-17.35,0-31.42-9-31.42-20.16,0-4.22,2-8.15,5.51-11.39Z"/><path class="cls-5" d="M1395.68,0H0V59.23c0,7.25,15.19,13.52,28,13.52a38.91,38.91,0,0,0,16.3-3.54c4.66,3.7,12,6.06,20,6.06.78,0,1.66,0,2.42-.07a14.26,14.26,0,0,0-2.26,7.67c0,11.37,14.39,20.59,32.12,20.59,17,0,30.86-8.45,32-19.15a37.27,37.27,0,0,0,6.7.6,36.22,36.22,0,0,0,7.8-.83A12.29,12.29,0,0,0,143,85.9c0,9.7,12.25,17.56,27.36,17.56s27.37-7.86,27.37-17.56a12.45,12.45,0,0,0-2.35-7.11c1.2.12,2.44.19,3.7.19a30.66,30.66,0,0,0,16.26-4.3c3.36,6,12.25,10.23,22.7,10.23.5,0,1,0,1.47,0A14.7,14.7,0,0,0,238,91.27c0,12.06,15.17,21.83,34,21.83s33.91-9.77,33.91-21.83h.74c9.87,0,18-5.13,18-11.46a8.42,8.42,0,0,0-2.15-5.46,30.27,30.27,0,0,0,7.47.92,29,29,0,0,0,10.46-1.87c3.83,14.13,23,24.87,46.13,24.87a72.91,72.91,0,0,0,9.22-.64,63.92,63.92,0,0,0,23,7.86,16.31,16.31,0,0,0-3.12,9.39c0,12.7,16.05,23,35.84,23,17.1,0,31.39-7.68,35-18a108.92,108.92,0,0,0,19.5,2.23c5.2,9.06,16.12,16.36,30,20.08a16,16,0,0,0-.55,4.14c0,13.66,17.26,24.73,38.55,24.73,15.65,0,29.11-6,35.15-14.59q1.62.12,3.3.12c15.2,0,27.54-7.46,29-17,2.88.2,5.78.32,8.73.32,1.37,0,2.71,0,4.06-.07,2.75,4.75,7.71,8.76,14,11.71,5.55,8.45,17.17,14.87,31.43,16.8a22.88,22.88,0,0,0-.57,5c0,19.14,24.15,34.66,53.93,34.66,24.33,0,44.71-10.39,51.43-24.62a74,74,0,0,0,14-1.86c.68.06,1.34.17,2,.22,0,.31,0,.63,0,.95,0,14,17.64,25.32,39.4,25.32,1.51,0,3-.06,4.44-.16,8.14,11.6,26.28,19.69,47.38,19.69a73.94,73.94,0,0,0,26.93-5A73.63,73.63,0,0,0,971.05,230c21.79,0,40.53-8.35,48.93-20.33,1.51.1,3,.17,4.59.17,22.47,0,40.7-11.71,40.7-26.15,0-.34,0-.66,0-1,1.1-.08,2.16-.24,3.25-.35a75.35,75.35,0,0,0,7.88.44c1.58,0,3.06-.2,4.59-.29,5.94,15.66,27.72,27.34,53.93,27.34,30.76,0,55.7-16,55.7-35.79a23,23,0,0,0-.59-5.18c20.66-2.8,36.16-14.58,36.16-28.68,0-.41,0-.83-.05-1.23a143.77,143.77,0,0,0,15,.78c1.7,0,3.38-.07,5.06-.13a68.91,68.91,0,0,0,7.74,2.62,16,16,0,0,0-.55,4.14c0,13.66,17.26,24.73,38.55,24.73,15.65,0,29.11-6,35.15-14.59q1.62.12,3.3.12c16.15,0,29.24-8.4,29.24-18.76,0-.24,0-.47,0-.71a71.23,71.23,0,0,0,10.7-1.54c3.42,11.95,19.73,21,39.35,21,22.1,0,40-11.49,40-25.67a17.18,17.18,0,0,0-.42-3.72c14.84-2,26-10.46,26-20.58,0-.29,0-.59,0-.88a102.27,102.27,0,0,0,10.75.57,102.68,102.68,0,0,0,10.33-.56c6.17,4.45,15.06,7.31,25.12,7.31,13.16,0,24.23-4.84,29.76-11.85,18.41-1.39,32.74-11.31,32.74-23.49a15.74,15.74,0,0,0-.34-2.83,28.22,28.22,0,0,0,6.6-1.53c3.83,14.13,23,24.87,46.12,24.87,22.18,0,40.74-9.89,45.59-23.17,1.27.11,2.58.17,3.9.17A39.6,39.6,0,0,0,1704.21,71c3.5,8.6,15.69,14.94,30.19,14.94a47.39,47.39,0,0,0,9.93-1c2.26,12.56,18.87,22.31,39.05,22.31,21.71,0,39.31-11.29,39.31-25.22,0-.11,0-.22,0-.33A44.22,44.22,0,0,0,1828,82a41.17,41.17,0,0,0,12.47-1.88c4.49,6.59,14.73,11.19,26.65,11.19,16.06,0,29.08-8.36,29.08-18.66a12.92,12.92,0,0,0-2-6.75c.37,0,.73-.79,1.1-.79,8.68,0,16.36-2.31,21.07-7.77H1920V0Z"/></svg>